<svg version="1.1" id="Layer_1" xmlns="http://www.w3.org/2000/svg" xmlns:xlink="http://www.w3.org/1999/xlink" x="0px" y="0px"
	 width="100%" viewBox="0 0 500 500" enable-background="new 0 0 500 500" xml:space="preserve">
<path fill="#000000" opacity="1.000000" stroke="none" 
	d="
M265.000000,501.000000 
	C176.666687,501.000000 88.833374,501.000000 1.000047,501.000000 
	C1.000031,334.333405 1.000031,167.666794 1.000016,1.000137 
	C167.666565,1.000091 334.333130,1.000091 500.999756,1.000046 
	C500.999847,167.666519 500.999847,334.333038 500.999939,500.999786 
	C422.500000,501.000000 344.000000,501.000000 265.000000,501.000000 
M168.835480,246.611084 
	C168.571548,246.415421 168.330124,246.195068 168.050888,245.121185 
	C167.013351,243.719528 165.975815,242.317871 164.562622,240.408722 
	C164.204941,240.958435 164.410873,240.538712 164.708588,240.199524 
	C171.760071,232.165543 173.278275,222.796234 168.959946,213.882919 
	C164.728699,205.149399 156.272598,200.217072 146.129272,201.028900 
	C135.789185,201.856461 128.967392,207.458710 125.536850,217.234619 
	C124.051254,221.468018 123.059357,221.651413 120.063614,218.317245 
	C114.226524,211.820663 106.225197,209.621384 98.405113,212.364136 
	C91.476624,214.794189 86.123260,221.800781 85.789917,228.875168 
	C85.367378,237.842270 89.402039,244.376480 97.752174,248.349228 
	C98.750992,248.824432 99.635605,249.539688 100.573151,250.143677 
	C100.378700,250.631775 100.184242,251.119873 99.989784,251.607971 
	C96.459274,250.867874 92.928764,250.127777 88.462105,249.191452 
	C90.496811,253.436859 92.095062,256.771606 93.665352,260.048004 
	C96.024513,259.184204 97.937172,258.483887 100.637100,257.495331 
	C100.637100,266.346191 100.637100,274.082825 100.637100,281.803345 
	C102.899292,281.978485 104.683586,282.116638 107.132874,282.306274 
	C106.212204,284.378632 105.787460,287.237823 104.651520,287.555725 
	C100.206055,288.799805 95.559181,289.527740 90.942917,289.902283 
	C86.057945,290.298645 81.122650,290.074829 75.766251,290.126099 
	C76.309319,293.321289 76.609314,295.086334 76.970749,297.212860 
	C78.832970,296.970795 80.522949,296.985168 82.061394,296.509460 
	C87.820732,294.728638 93.464851,292.543060 99.279007,290.981537 
	C104.192032,289.661987 109.965576,289.792297 108.725899,281.892944 
	C113.412834,281.892944 117.519638,281.892944 122.091354,281.892944 
	C122.091354,271.486420 122.091354,261.432556 122.091354,251.403442 
	C130.031326,251.403442 137.485031,251.403442 145.250183,251.403442 
	C145.250183,253.330200 145.250183,255.060898 145.250183,257.345551 
	C139.882462,257.345551 134.632034,257.345551 129.248657,257.345551 
	C129.248657,259.860992 129.248657,261.825562 129.248657,264.170593 
	C134.159042,264.170593 138.918152,264.170593 143.613571,264.170593 
	C143.613571,266.453217 143.613571,268.330048 143.613571,270.551392 
	C138.626053,270.551392 134.015610,270.551392 129.340729,270.551392 
	C129.340729,274.494293 129.340729,278.077026 129.340729,281.740479 
	C142.325546,281.740479 155.058533,281.740479 168.127335,281.740479 
	C168.127335,276.003387 168.127335,270.532104 168.784073,264.847229 
	C168.992203,264.748871 169.200333,264.650482 170.263748,264.517639 
	C178.000198,262.756042 183.434677,268.224640 189.745331,271.425873 
	C189.745331,260.578003 189.745331,250.417465 189.745331,239.496262 
	C183.221451,244.215347 176.918976,248.059143 168.835480,246.611084 
M226.629532,270.688232 
	C226.629532,278.994995 226.629532,287.301727 226.629532,295.979156 
	C232.611115,295.979156 238.236069,296.097168 243.853439,295.941406 
	C248.260422,295.819244 252.267578,294.418274 253.719238,289.772217 
	C255.165955,285.141968 252.287781,282.365570 248.034409,280.099579 
	C252.314590,277.530945 254.491104,274.107941 252.556366,269.564819 
	C250.659622,265.110901 246.454758,264.237549 242.133148,264.145050 
	C237.147354,264.038330 232.157501,264.120270 226.629578,264.120270 
	C226.629578,266.157776 226.629578,267.952637 226.629532,270.688232 
M352.765533,273.045654 
	C347.896942,264.640137 337.832062,261.697754 324.455231,264.831757 
	C324.455231,275.054688 324.455231,285.304260 324.455231,296.027557 
	C328.445282,296.027557 332.228821,296.040955 336.012268,296.025177 
	C350.146851,295.966278 356.569489,287.559265 352.765533,273.045654 
M351.061310,232.288467 
	C351.185516,233.509644 351.309753,234.730820 351.406464,235.681641 
	C353.952057,235.681641 356.016144,235.681641 358.253693,235.681641 
	C358.253693,231.707825 358.253693,228.063782 358.253693,224.013702 
	C360.421661,224.013702 362.404724,224.156067 364.360138,223.984009 
	C368.395996,223.628891 370.043213,225.224564 370.019989,229.395203 
	C369.979309,236.701080 370.694763,237.084305 378.171356,235.316330 
	C376.317993,230.601196 379.513733,224.319275 372.914368,220.862183 
	C377.664856,218.366592 379.210083,214.683517 377.822754,210.245834 
	C376.357574,205.559265 372.191467,204.382431 367.881439,204.215439 
	C362.323029,204.000092 356.749939,204.162994 351.061279,204.162994 
	C351.061279,213.720123 351.061279,222.526688 351.061310,232.288467 
M243.564178,216.980423 
	C241.774307,216.980423 239.984451,216.980423 237.693024,216.980423 
	C237.693024,212.505493 237.693024,208.441391 237.693024,204.494385 
	C234.955154,204.494385 232.734436,204.494385 230.486755,204.494385 
	C230.486755,215.133667 230.486755,225.389481 230.486755,235.767319 
	C232.968872,235.767319 235.208908,235.767319 238.040741,235.767319 
	C238.040741,231.504242 238.040741,227.472015 238.040741,223.656754 
	C242.895309,223.656754 247.150162,223.656754 251.802109,223.656754 
	C251.802109,227.918518 251.802109,231.839050 251.802109,235.881912 
	C254.326843,235.881912 256.443848,235.881912 258.635925,235.881912 
	C258.635925,225.225876 258.635925,214.711700 258.635925,204.425018 
	C256.173126,204.425018 254.096893,204.425018 251.760345,204.425018 
	C251.760345,208.703583 251.760345,212.673080 251.760345,216.980423 
	C249.176544,216.980423 246.862320,216.980423 243.564178,216.980423 
M297.559082,264.123840 
	C295.451782,264.123840 293.344513,264.123840 290.910828,264.123840 
	C290.910828,269.799774 290.910828,274.933472 290.910828,280.067169 
	C290.910828,285.317749 290.910828,290.568298 290.910828,295.951050 
	C296.339844,295.951050 301.156769,296.128326 305.955597,295.909668 
	C313.229462,295.578278 318.717499,291.030273 319.986847,284.634644 
	C322.415375,272.398865 315.998993,264.403992 303.519592,264.131958 
	C301.855530,264.095673 300.190063,264.124939 297.559082,264.123840 
M393.470154,223.019913 
	C397.427856,223.019913 401.385559,223.019913 405.524353,223.019913 
	C405.524353,220.794266 405.524353,219.030640 405.524353,216.694794 
	C400.497864,216.694794 395.615173,216.694794 390.715393,216.694794 
	C390.715393,214.388199 390.715393,212.671036 390.715393,210.499756 
	C396.297943,210.499756 401.554871,210.499756 406.786133,210.499756 
	C406.786133,208.140427 406.786133,206.247116 406.786133,204.462830 
	C398.720367,204.462830 390.997009,204.462830 383.260132,204.462830 
	C383.260132,215.070053 383.260132,225.325562 383.260132,235.788757 
	C391.530975,235.788757 399.595703,235.788757 407.806458,235.788757 
	C407.806458,233.779419 407.806458,232.000778 407.806458,229.760834 
	C402.110748,229.760834 396.532593,229.760834 390.457733,229.760834 
	C391.157684,227.134293 388.216949,224.230057 393.470154,223.019913 
M284.997498,287.262177 
	C284.997498,279.648132 284.997498,272.034088 284.997498,264.471893 
	C282.724457,264.471893 280.501648,264.471893 278.030365,264.471893 
	C278.030365,270.977386 278.179230,277.125305 277.984253,283.262299 
	C277.821991,288.368622 273.407562,291.732269 269.230469,289.472961 
	C267.141266,288.342957 265.322357,285.016022 265.075134,282.515289 
	C264.479584,276.491211 264.882172,270.368439 264.882172,264.363190 
	C261.998169,264.363190 259.897522,264.363190 257.336945,264.363190 
	C257.336945,270.736755 257.190155,276.864563 257.373810,282.982452 
	C257.607697,290.774628 260.914246,294.852448 267.662903,296.189178 
	C275.937103,297.828094 281.479126,295.205811 284.997498,287.262177 
M273.841583,223.014938 
	C278.262543,223.014938 282.683472,223.014938 287.037170,223.014938 
	C287.037170,220.612427 287.037170,218.849792 287.037170,216.721207 
	C281.987915,216.721207 277.209503,216.721207 272.448364,216.721207 
	C272.448364,214.464661 272.448364,212.588562 272.448364,210.360260 
	C278.097412,210.360260 283.388275,210.360260 288.783203,210.360260 
	C288.783203,208.207062 288.783203,206.418076 288.783203,204.377747 
	C280.874329,204.377747 273.131012,204.377747 265.168823,204.377747 
	C265.168823,214.937347 265.168823,225.321487 265.168823,235.663254 
	C273.493927,235.663254 281.558868,235.663254 289.805969,235.663254 
	C289.711914,233.556183 289.633789,231.805984 289.536469,229.626221 
	C283.506012,229.626221 277.906860,229.626221 271.733734,229.626221 
	C272.188019,227.111526 272.550659,225.103973 273.841583,223.014938 
M312.108643,231.078125 
	C312.953186,236.932007 316.835968,236.388000 321.361389,235.648758 
	C318.201263,226.980667 314.802887,218.865463 312.339661,210.475708 
	C310.715302,204.943298 308.149536,202.607635 302.013306,204.678299 
	C298.401184,214.682281 294.626343,225.136841 290.791931,235.756439 
	C293.671875,235.756439 295.930389,235.756439 296.974945,235.756439 
	C299.254547,233.231262 300.592651,230.420258 302.532715,229.913376 
	C305.396912,229.165085 308.689362,230.055969 312.108643,231.078125 
M367.057831,275.538635 
	C366.037842,273.639709 364.725311,271.838196 364.054230,269.823090 
	C362.233246,264.355408 358.520264,263.020264 352.991760,264.520966 
	C357.133026,274.824341 366.969269,283.089386 363.917267,295.731812 
	C366.896362,295.731812 369.131989,295.731812 372.044647,295.731812 
	C368.831390,282.863464 378.801697,274.764282 382.673187,264.463959 
	C377.325958,263.087280 373.664398,264.313385 371.727783,269.792389 
	C370.902527,272.127197 368.946625,274.062378 367.057831,275.538635 
M347.356049,206.629868 
	C346.326660,205.783463 345.314514,204.228439 344.265167,204.202911 
	C335.967010,204.001053 327.661804,204.090668 319.107300,204.090668 
	C319.107300,206.367249 319.107300,208.454559 319.107300,210.984253 
	C322.593475,210.984253 325.836182,210.984253 329.422119,210.984253 
	C329.422119,219.508179 329.422119,227.596573 329.422119,235.787369 
	C332.041504,235.787369 334.282562,235.787369 337.040161,235.787369 
	C337.040161,227.332382 337.040161,219.112625 337.040161,210.796616 
	C339.883820,210.796616 342.292084,211.157104 344.499451,210.647537 
	C345.636627,210.385025 346.416351,208.574005 347.356049,206.629868 
M214.485458,204.112473 
	C209.206253,204.112473 203.927048,204.112473 198.503876,204.112473 
	C198.503876,206.534500 198.503876,208.428116 198.503876,210.715942 
	C202.034332,210.715942 205.287811,210.715942 209.002625,210.715942 
	C209.002625,219.338455 209.002625,227.574020 209.002625,235.877167 
	C211.595551,235.877167 213.719910,235.877167 216.233307,235.877167 
	C216.233307,231.613480 216.233307,227.486755 216.233307,223.360046 
	C216.233307,219.277161 216.233307,215.194260 216.233307,210.666992 
	C220.086456,210.666992 223.345825,210.666992 226.644821,210.666992 
	C226.644821,208.290787 226.644821,206.385956 226.644821,204.112473 
	C222.736893,204.112473 219.106079,204.112473 214.485458,204.112473 
z"/>
<path fill="#FAFAFA" opacity="1.000000" stroke="none" 
	d="
M168.127335,265.060822 
	C168.127335,270.532104 168.127335,276.003387 168.127335,281.740479 
	C155.058533,281.740479 142.325546,281.740479 129.340729,281.740479 
	C129.340729,278.077026 129.340729,274.494293 129.340729,270.551392 
	C134.015610,270.551392 138.626053,270.551392 143.613571,270.551392 
	C143.613571,268.330048 143.613571,266.453217 143.613571,264.170593 
	C138.918152,264.170593 134.159042,264.170593 129.248657,264.170593 
	C129.248657,261.825562 129.248657,259.860992 129.248657,257.345551 
	C134.632034,257.345551 139.882462,257.345551 145.250183,257.345551 
	C145.250183,255.060898 145.250183,253.330200 145.250183,251.403442 
	C137.485031,251.403442 130.031326,251.403442 122.091354,251.403442 
	C122.091354,261.432556 122.091354,271.486420 122.091354,281.892944 
	C117.519638,281.892944 113.412834,281.892944 108.725899,281.892944 
	C109.965576,289.792297 104.192032,289.661987 99.279007,290.981537 
	C93.464851,292.543060 87.820732,294.728638 82.061394,296.509460 
	C80.522949,296.985168 78.832970,296.970795 76.970749,297.212860 
	C76.609314,295.086334 76.309319,293.321289 75.766251,290.126099 
	C81.122650,290.074829 86.057945,290.298645 90.942917,289.902283 
	C95.559181,289.527740 100.206055,288.799805 104.651520,287.555725 
	C105.787460,287.237823 106.212204,284.378632 107.132874,282.306274 
	C104.683586,282.116638 102.899292,281.978485 100.637100,281.803345 
	C100.637100,274.082825 100.637100,266.346191 100.637100,257.495331 
	C97.937172,258.483887 96.024513,259.184204 93.665352,260.048004 
	C92.095062,256.771606 90.496811,253.436859 88.462105,249.191452 
	C92.928764,250.127777 96.459274,250.867874 99.989784,251.607971 
	C100.184242,251.119873 100.378700,250.631775 100.573151,250.143677 
	C99.635605,249.539688 98.750992,248.824432 97.752174,248.349228 
	C89.402039,244.376480 85.367378,237.842270 85.789917,228.875168 
	C86.123260,221.800781 91.476624,214.794189 98.405113,212.364136 
	C106.225197,209.621384 114.226524,211.820663 120.063614,218.317245 
	C123.059357,221.651413 124.051254,221.468018 125.536850,217.234619 
	C128.967392,207.458710 135.789185,201.856461 146.129272,201.028900 
	C156.272598,200.217072 164.728699,205.149399 168.959946,213.882919 
	C173.278275,222.796234 171.760071,232.165543 164.708588,240.199524 
	C164.410873,240.538712 164.204941,240.958435 164.562622,240.408722 
	C165.975815,242.317871 167.013351,243.719528 167.994675,246.000183 
	C168.001419,252.939713 168.064377,259.000275 168.127335,265.060822 
M142.004684,213.125504 
	C135.878448,217.582535 134.139145,222.818695 136.905487,228.476578 
	C139.717560,234.227982 146.093918,236.665894 152.009644,234.251434 
	C157.913864,231.841675 160.825912,225.438232 158.702271,219.534668 
	C156.420532,213.191605 150.157776,210.574524 142.004684,213.125504 
M101.425934,238.498947 
	C109.818031,240.154144 115.952881,235.407211 114.697197,228.230103 
	C113.915863,223.764267 110.326912,220.315048 105.935265,220.063309 
	C101.504906,219.809341 98.202820,221.858398 96.337997,225.798172 
	C94.300568,230.102646 96.050476,234.679077 101.425934,238.498947 
M122.575600,238.984177 
	C122.122711,239.819153 121.669823,240.654144 121.117523,241.672394 
	C124.922630,241.672394 128.356934,241.672394 132.033646,241.672394 
	C126.376938,234.487671 126.123856,234.399796 122.575600,238.984177 
z"/>
<path fill="#F6F6F6" opacity="1.000000" stroke="none" 
	d="
M226.629547,270.217865 
	C226.629578,267.952637 226.629578,266.157776 226.629578,264.120270 
	C232.157501,264.120270 237.147354,264.038330 242.133148,264.145050 
	C246.454758,264.237549 250.659622,265.110901 252.556366,269.564819 
	C254.491104,274.107941 252.314590,277.530945 248.034409,280.099579 
	C252.287781,282.365570 255.165955,285.141968 253.719238,289.772217 
	C252.267578,294.418274 248.260422,295.819244 243.853439,295.941406 
	C238.236069,296.097168 232.611115,295.979156 226.629532,295.979156 
	C226.629532,287.301727 226.629532,278.994995 226.629547,270.217865 
M241.110977,289.951294 
	C243.843460,289.841675 247.178650,289.733337 246.525742,286.058350 
	C246.286407,284.711243 242.942078,283.520691 240.832413,283.011047 
	C238.680893,282.491302 236.306015,282.896088 234.040558,282.896088 
	C234.040558,285.505310 234.040558,287.574921 234.040558,289.952484 
	C236.271072,289.952484 238.242828,289.952484 241.110977,289.951294 
M233.859497,276.572632 
	C236.747955,276.811981 239.675690,277.421875 242.506927,277.121704 
	C243.769547,276.987823 244.838028,275.023132 245.994629,273.889374 
	C244.839859,272.718262 243.833939,270.799469 242.498932,270.533691 
	C239.828949,270.002136 236.978714,270.376007 233.752151,270.376007 
	C233.752151,272.376495 233.752151,273.996216 233.859497,276.572632 
z"/>
<path fill="#F1F1F1" opacity="1.000000" stroke="none" 
	d="
M352.881775,273.424500 
	C356.569489,287.559265 350.146851,295.966278 336.012268,296.025177 
	C332.228821,296.040955 328.445282,296.027557 324.455231,296.027557 
	C324.455231,285.304260 324.455231,275.054688 324.455231,264.831757 
	C337.832062,261.697754 347.896942,264.640137 352.881775,273.424500 
M332.486237,270.885925 
	C332.194275,277.054871 331.902283,283.223846 331.609283,289.414673 
	C334.498444,289.414673 336.510040,289.625305 338.462494,289.374969 
	C344.185669,288.640991 346.597443,285.473480 346.329376,279.362061 
	C346.094940,274.017242 343.390137,271.252686 337.928802,270.857666 
	C336.438660,270.749908 334.936798,270.803894 332.486237,270.885925 
z"/>
<path fill="#F8F8F8" opacity="1.000000" stroke="none" 
	d="
M351.061279,231.810852 
	C351.061279,222.526688 351.061279,213.720123 351.061279,204.162994 
	C356.749939,204.162994 362.323029,204.000092 367.881439,204.215439 
	C372.191467,204.382431 376.357574,205.559265 377.822754,210.245834 
	C379.210083,214.683517 377.664856,218.366592 372.914368,220.862183 
	C379.513733,224.319275 376.317993,230.601196 378.171356,235.316330 
	C370.694763,237.084305 369.979309,236.701080 370.019989,229.395203 
	C370.043213,225.224564 368.395996,223.628891 364.360138,223.984009 
	C362.404724,224.156067 360.421661,224.013702 358.253693,224.013702 
	C358.253693,228.063782 358.253693,231.707825 358.253693,235.681641 
	C356.016144,235.681641 353.952057,235.681641 351.406464,235.681641 
	C351.309753,234.730820 351.185516,233.509644 351.061279,231.810852 
M369.953766,211.525803 
	C366.141235,211.074478 362.328705,210.623154 358.392578,210.157196 
	C358.392578,213.310455 358.392578,215.421082 358.392578,218.021118 
	C361.176788,218.021118 363.795746,218.117554 366.404846,217.998245 
	C370.203979,217.824478 371.957031,216.079468 369.953766,211.525803 
z"/>
<path fill="#F5F5F5" opacity="1.000000" stroke="none" 
	d="
M244.056152,216.980423 
	C246.862320,216.980423 249.176544,216.980423 251.760345,216.980423 
	C251.760345,212.673080 251.760345,208.703583 251.760345,204.425018 
	C254.096893,204.425018 256.173126,204.425018 258.635925,204.425018 
	C258.635925,214.711700 258.635925,225.225876 258.635925,235.881912 
	C256.443848,235.881912 254.326843,235.881912 251.802109,235.881912 
	C251.802109,231.839050 251.802109,227.918518 251.802109,223.656754 
	C247.150162,223.656754 242.895309,223.656754 238.040741,223.656754 
	C238.040741,227.472015 238.040741,231.504242 238.040741,235.767319 
	C235.208908,235.767319 232.968872,235.767319 230.486755,235.767319 
	C230.486755,225.389481 230.486755,215.133667 230.486755,204.494385 
	C232.734436,204.494385 234.955154,204.494385 237.693024,204.494385 
	C237.693024,208.441391 237.693024,212.505493 237.693024,216.980423 
	C239.984451,216.980423 241.774307,216.980423 244.056152,216.980423 
z"/>
<path fill="#F9F9F9" opacity="1.000000" stroke="none" 
	d="
M298.042175,264.123840 
	C300.190063,264.124939 301.855530,264.095673 303.519592,264.131958 
	C315.998993,264.403992 322.415375,272.398865 319.986847,284.634644 
	C318.717499,291.030273 313.229462,295.578278 305.955597,295.909668 
	C301.156769,296.128326 296.339844,295.951050 290.910828,295.951050 
	C290.910828,290.568298 290.910828,285.317749 290.910828,280.067169 
	C290.910828,274.933472 290.910828,269.799774 290.910828,264.123840 
	C293.344513,264.123840 295.451782,264.123840 298.042175,264.123840 
M312.808899,282.852051 
	C313.413605,272.727783 308.850128,269.097687 298.505554,271.395294 
	C298.505554,277.435760 298.505554,283.451294 298.505554,289.632965 
	C304.330322,289.594574 310.074371,290.427124 312.808899,282.852051 
z"/>
<path fill="#F5F5F5" opacity="1.000000" stroke="none" 
	d="
M392.963562,223.021729 
	C388.216949,224.230057 391.157684,227.134293 390.457733,229.760834 
	C396.532593,229.760834 402.110748,229.760834 407.806458,229.760834 
	C407.806458,232.000778 407.806458,233.779419 407.806458,235.788757 
	C399.595703,235.788757 391.530975,235.788757 383.260132,235.788757 
	C383.260132,225.325562 383.260132,215.070053 383.260132,204.462830 
	C390.997009,204.462830 398.720367,204.462830 406.786133,204.462830 
	C406.786133,206.247116 406.786133,208.140427 406.786133,210.499756 
	C401.554871,210.499756 396.297943,210.499756 390.715393,210.499756 
	C390.715393,212.671036 390.715393,214.388199 390.715393,216.694794 
	C395.615173,216.694794 400.497864,216.694794 405.524353,216.694794 
	C405.524353,219.030640 405.524353,220.794266 405.524353,223.019913 
	C401.385559,223.019913 397.427856,223.019913 392.963562,223.021729 
z"/>
<path fill="#F2F2F2" opacity="1.000000" stroke="none" 
	d="
M284.924164,287.659363 
	C281.479126,295.205811 275.937103,297.828094 267.662903,296.189178 
	C260.914246,294.852448 257.607697,290.774628 257.373810,282.982452 
	C257.190155,276.864563 257.336945,270.736755 257.336945,264.363190 
	C259.897522,264.363190 261.998169,264.363190 264.882172,264.363190 
	C264.882172,270.368439 264.479584,276.491211 265.075134,282.515289 
	C265.322357,285.016022 267.141266,288.342957 269.230469,289.472961 
	C273.407562,291.732269 277.821991,288.368622 277.984253,283.262299 
	C278.179230,277.125305 278.030365,270.977386 278.030365,264.471893 
	C280.501648,264.471893 282.724457,264.471893 284.997498,264.471893 
	C284.997498,272.034088 284.997498,279.648132 284.924164,287.659363 
z"/>
<path fill="#FAFAFA" opacity="1.000000" stroke="none" 
	d="
M273.377441,223.055679 
	C272.550659,225.103973 272.188019,227.111526 271.733734,229.626221 
	C277.906860,229.626221 283.506012,229.626221 289.536469,229.626221 
	C289.633789,231.805984 289.711914,233.556183 289.805969,235.663254 
	C281.558868,235.663254 273.493927,235.663254 265.168823,235.663254 
	C265.168823,225.321487 265.168823,214.937347 265.168823,204.377747 
	C273.131012,204.377747 280.874329,204.377747 288.783203,204.377747 
	C288.783203,206.418076 288.783203,208.207062 288.783203,210.360260 
	C283.388275,210.360260 278.097412,210.360260 272.448364,210.360260 
	C272.448364,212.588562 272.448364,214.464661 272.448364,216.721207 
	C277.209503,216.721207 281.987915,216.721207 287.037170,216.721207 
	C287.037170,218.849792 287.037170,220.612427 287.037170,223.014938 
	C282.683472,223.014938 278.262543,223.014938 273.377441,223.055679 
z"/>
<path fill="#F5F5F5" opacity="1.000000" stroke="none" 
	d="
M311.954041,230.663467 
	C308.689362,230.055969 305.396912,229.165085 302.532715,229.913376 
	C300.592651,230.420258 299.254547,233.231262 296.974945,235.756439 
	C295.930389,235.756439 293.671875,235.756439 290.791931,235.756439 
	C294.626343,225.136841 298.401184,214.682281 302.013306,204.678299 
	C308.149536,202.607635 310.715302,204.943298 312.339661,210.475708 
	C314.802887,218.865463 318.201263,226.980667 321.361389,235.648758 
	C316.835968,236.388000 312.953186,236.932007 311.954041,230.663467 
M307.032318,215.965134 
	C306.431641,215.782608 305.315460,215.412125 305.303711,215.444336 
	C304.360046,218.032379 303.502594,220.651855 302.553436,223.527405 
	C305.074371,223.527405 307.075104,223.527405 309.559357,223.527405 
	C308.687286,220.967789 307.954620,218.817337 307.032318,215.965134 
z"/>
<path fill="#FDFDFD" opacity="1.000000" stroke="none" 
	d="
M169.009628,247.068771 
	C176.918976,248.059143 183.221451,244.215347 189.745331,239.496262 
	C189.745331,250.417465 189.745331,260.578003 189.745331,271.425873 
	C183.434677,268.224640 178.000198,262.756042 169.718079,264.109924 
	C169.118149,258.157745 169.063889,252.613251 169.009628,247.068771 
z"/>
<path fill="#F1F1F1" opacity="1.000000" stroke="none" 
	d="
M367.281189,275.858887 
	C368.946625,274.062378 370.902527,272.127197 371.727783,269.792389 
	C373.664398,264.313385 377.325958,263.087280 382.673187,264.463959 
	C378.801697,274.764282 368.831390,282.863464 372.044647,295.731812 
	C369.131989,295.731812 366.896362,295.731812 363.917267,295.731812 
	C366.969269,283.089386 357.133026,274.824341 352.991760,264.520966 
	C358.520264,263.020264 362.233246,264.355408 364.054230,269.823090 
	C364.725311,271.838196 366.037842,273.639709 367.281189,275.858887 
z"/>
<path fill="#ECECEC" opacity="1.000000" stroke="none" 
	d="
M347.356812,207.046280 
	C346.416351,208.574005 345.636627,210.385025 344.499451,210.647537 
	C342.292084,211.157104 339.883820,210.796616 337.040161,210.796616 
	C337.040161,219.112625 337.040161,227.332382 337.040161,235.787369 
	C334.282562,235.787369 332.041504,235.787369 329.422119,235.787369 
	C329.422119,227.596573 329.422119,219.508179 329.422119,210.984253 
	C325.836182,210.984253 322.593475,210.984253 319.107300,210.984253 
	C319.107300,208.454559 319.107300,206.367249 319.107300,204.090668 
	C327.661804,204.090668 335.967010,204.001053 344.265167,204.202911 
	C345.314514,204.228439 346.326660,205.783463 347.356812,207.046280 
z"/>
<path fill="#F5F5F5" opacity="1.000000" stroke="none" 
	d="
M214.980347,204.112473 
	C219.106079,204.112473 222.736893,204.112473 226.644821,204.112473 
	C226.644821,206.385956 226.644821,208.290787 226.644821,210.666992 
	C223.345825,210.666992 220.086456,210.666992 216.233307,210.666992 
	C216.233307,215.194260 216.233307,219.277161 216.233307,223.360046 
	C216.233307,227.486755 216.233307,231.613480 216.233307,235.877167 
	C213.719910,235.877167 211.595551,235.877167 209.002625,235.877167 
	C209.002625,227.574020 209.002625,219.338455 209.002625,210.715942 
	C205.287811,210.715942 202.034332,210.715942 198.503876,210.715942 
	C198.503876,208.428116 198.503876,206.534500 198.503876,204.112473 
	C203.927048,204.112473 209.206253,204.112473 214.980347,204.112473 
z"/>
<path fill="#595959" opacity="1.000000" stroke="none" 
	d="
M168.922546,246.839935 
	C169.063889,252.613251 169.118149,258.157745 169.290436,264.127167 
	C169.200333,264.650482 168.992203,264.748871 168.455704,264.954041 
	C168.064377,259.000275 168.001419,252.939713 168.024841,246.414612 
	C168.330124,246.195068 168.571548,246.415421 168.922546,246.839935 
z"/>
<path fill="#0F0F0F" opacity="1.000000" stroke="none" 
	d="
M142.383087,212.999420 
	C150.157776,210.574524 156.420532,213.191605 158.702271,219.534668 
	C160.825912,225.438232 157.913864,231.841675 152.009644,234.251434 
	C146.093918,236.665894 139.717560,234.227982 136.905487,228.476578 
	C134.139145,222.818695 135.878448,217.582535 142.383087,212.999420 
z"/>
<path fill="#0F0F0F" opacity="1.000000" stroke="none" 
	d="
M101.065086,238.322357 
	C96.050476,234.679077 94.300568,230.102646 96.337997,225.798172 
	C98.202820,221.858398 101.504906,219.809341 105.935265,220.063309 
	C110.326912,220.315048 113.915863,223.764267 114.697197,228.230103 
	C115.952881,235.407211 109.818031,240.154144 101.065086,238.322357 
z"/>
<path fill="#050505" opacity="1.000000" stroke="none" 
	d="
M122.740768,238.624542 
	C126.123856,234.399796 126.376938,234.487671 132.033646,241.672394 
	C128.356934,241.672394 124.922630,241.672394 121.117523,241.672394 
	C121.669823,240.654144 122.122711,239.819153 122.740768,238.624542 
z"/>
<path fill="#050505" opacity="1.000000" stroke="none" 
	d="
M240.662781,289.951904 
	C238.242828,289.952484 236.271072,289.952484 234.040558,289.952484 
	C234.040558,287.574921 234.040558,285.505310 234.040558,282.896088 
	C236.306015,282.896088 238.680893,282.491302 240.832413,283.011047 
	C242.942078,283.520691 246.286407,284.711243 246.525742,286.058350 
	C247.178650,289.733337 243.843460,289.841675 240.662781,289.951904 
z"/>
<path fill="#0F0F0F" opacity="1.000000" stroke="none" 
	d="
M233.805817,276.094269 
	C233.752151,273.996216 233.752151,272.376495 233.752151,270.376007 
	C236.978714,270.376007 239.828949,270.002136 242.498932,270.533691 
	C243.833939,270.799469 244.839859,272.718262 245.994629,273.889374 
	C244.838028,275.023132 243.769547,276.987823 242.506927,277.121704 
	C239.675690,277.421875 236.747955,276.811981 233.805817,276.094269 
z"/>
<path fill="#050505" opacity="1.000000" stroke="none" 
	d="
M332.963257,270.834808 
	C334.936798,270.803894 336.438660,270.749908 337.928802,270.857666 
	C343.390137,271.252686 346.094940,274.017242 346.329376,279.362061 
	C346.597443,285.473480 344.185669,288.640991 338.462494,289.374969 
	C336.510040,289.625305 334.498444,289.414673 331.609283,289.414673 
	C331.902283,283.223846 332.194275,277.054871 332.963257,270.834808 
z"/>
<path fill="#0F0F0F" opacity="1.000000" stroke="none" 
	d="
M370.216614,211.840454 
	C371.957031,216.079468 370.203979,217.824478 366.404846,217.998245 
	C363.795746,218.117554 361.176788,218.021118 358.392578,218.021118 
	C358.392578,215.421082 358.392578,213.310455 358.392578,210.157196 
	C362.328705,210.623154 366.141235,211.074478 370.216614,211.840454 
z"/>
<path fill="#0A0A0A" opacity="1.000000" stroke="none" 
	d="
M312.690918,283.239899 
	C310.074371,290.427124 304.330322,289.594574 298.505554,289.632965 
	C298.505554,283.451294 298.505554,277.435760 298.505554,271.395294 
	C308.850128,269.097687 313.413605,272.727783 312.690918,283.239899 
z"/>
<path fill="#0F0F0F" opacity="1.000000" stroke="none" 
	d="
M307.127136,216.316010 
	C307.954620,218.817337 308.687286,220.967789 309.559357,223.527405 
	C307.075104,223.527405 305.074371,223.527405 302.553436,223.527405 
	C303.502594,220.651855 304.360046,218.032379 305.303711,215.444336 
	C305.315460,215.412125 306.431641,215.782608 307.127136,216.316010 
z"/>
</svg>